<?xml version="1.0" encoding="iso-8859-1"?>
<!-- Generator: Adobe Illustrator 21.1.0, SVG Export Plug-In . SVG Version: 6.00 Build 0)  -->
<svg version="1.1" id="Layer_1" xmlns="http://www.w3.org/2000/svg" xmlns:xlink="http://www.w3.org/1999/xlink" x="0px" y="0px"
	 viewBox="0 0 100 70" style="enable-background:new 0 0 100 70;" xml:space="preserve">
<path style="opacity:0.24;fill:#C4E4F8;" d="M94.735,30.174c-2.577-2.505-13.201-5.977-14.11-9.475l-1.443-5.554
	C76.883,1.367,60.373-2.839,50.798,5.432c-7.339,6.339-16.729,10.822-32.459,7.077c-7.198-1.714-15.687,3.555-16.218,10.935
	c-0.14,1.942,2.911,10.658,3.571,12.635c1.775,5.322-2.12,15.924-2.76,23.816c-0.237,2.925,1.202,5.6,3.552,7.951h79.902
	c4.551-5.975,11.517-15.747,13.062-21.467C101.026,40.536,99.15,34.466,94.735,30.174z"/>
<path style="fill:#4C5EA9;" d="M1.31,68.792h89.406c0.463,0,0.842-0.379,0.842-0.842V67.74c0-0.463-0.379-0.842-0.842-0.842H1.31
	c-0.463,0-0.842,0.379-0.842,0.842v0.211C0.469,68.414,0.847,68.792,1.31,68.792z"/>
<g>
	<g>
		<g>
			<path style="fill:#4C5EA9;" d="M48.121,65.275l-2.182-2.313l0.14-0.185c1.749-2.309,1.576-5.515-0.411-7.623
				c-1.987-2.107-5.177-2.468-7.585-0.858l-0.193,0.129l-2.181-2.314l32.495-30.64l1.437,1.523l-0.087,0.172
				c-0.17,0.336-0.116,0.74,0.134,1.006c0.251,0.265,0.652,0.343,0.996,0.193l0.177-0.077l0.903,0.958l-0.087,0.172
				c-0.17,0.336-0.116,0.741,0.134,1.006c0.25,0.266,0.65,0.343,0.996,0.193l0.177-0.077l0.904,0.958l-0.087,0.172
				c-0.17,0.336-0.116,0.74,0.134,1.006c0.251,0.265,0.651,0.343,0.996,0.193l0.177-0.077l0.903,0.958l-0.087,0.172
				c-0.17,0.336-0.116,0.74,0.134,1.006c0.25,0.266,0.65,0.343,0.996,0.193l0.177-0.077l0.904,0.958l-0.087,0.172
				c-0.17,0.336-0.116,0.74,0.134,1.006c0.251,0.265,0.651,0.343,0.996,0.193l0.177-0.077l1.26,1.336L48.121,65.275z M46.655,62.92
				l1.488,1.579l31.696-29.887l-0.628-0.666c-0.51,0.143-1.065-0.001-1.428-0.386c-0.364-0.386-0.475-0.948-0.302-1.448
				l-0.394-0.418c-0.51,0.144-1.064,0-1.428-0.387c-0.364-0.386-0.476-0.947-0.302-1.448l-0.393-0.418
				c-0.511,0.145-1.065-0.001-1.428-0.386c-0.364-0.386-0.475-0.948-0.302-1.448l-0.394-0.418c-0.51,0.144-1.064-0.001-1.428-0.387
				c-0.364-0.385-0.475-0.947-0.302-1.448l-0.394-0.417c-0.511,0.142-1.065-0.001-1.428-0.387c-0.364-0.386-0.475-0.948-0.302-1.448
				l-0.805-0.854L36.486,52.135l1.488,1.579c2.607-1.613,5.976-1.183,8.095,1.063C48.187,57.024,48.418,60.412,46.655,62.92z"/>
		</g>
		<g>
			<path style="fill:#FFFFFF;" d="M37.931,54.068l-1.833-1.944L68.193,21.86l1.116,1.183c-0.215,0.425-0.165,0.954,0.179,1.318
				c0.344,0.365,0.869,0.446,1.306,0.256l0.639,0.677c-0.215,0.425-0.165,0.954,0.179,1.318s0.869,0.446,1.306,0.256l0.639,0.677
				c-0.215,0.425-0.165,0.954,0.179,1.318s0.869,0.446,1.306,0.256l0.639,0.677c-0.215,0.425-0.165,0.954,0.179,1.318
				s0.869,0.446,1.306,0.256l0.639,0.677c-0.215,0.425-0.165,0.954,0.179,1.318c0.344,0.365,0.869,0.446,1.306,0.256l0.939,0.996
				L48.132,64.887l-1.833-1.944c1.792-2.366,1.674-5.745-0.43-7.977C43.764,52.734,40.398,52.418,37.931,54.068z"/>
		</g>
		<g style="opacity:0.24;">
			<g>
				<path style="fill:#C4E4F8;" d="M71.4,26.283L42.834,53.218c-1.65-0.401-3.435-0.132-4.903,0.851l-1.833-1.944L68.193,21.86
					l1.116,1.183c-0.215,0.425-0.165,0.954,0.179,1.318c0.344,0.365,0.869,0.446,1.306,0.256l0.639,0.677
					C71.276,25.605,71.265,25.967,71.4,26.283z"/>
			</g>
		</g>
		<g>
			<path style="fill:#4C5EA9;" d="M48.121,65.275l-2.182-2.313l0.14-0.185c1.749-2.309,1.576-5.515-0.411-7.623
				c-1.987-2.107-5.177-2.468-7.585-0.858l-0.193,0.129l-2.181-2.314l32.495-30.64l1.437,1.523l-0.087,0.172
				c-0.17,0.336-0.116,0.74,0.134,1.006c0.251,0.265,0.652,0.343,0.996,0.193l0.177-0.077l0.903,0.958l-0.087,0.172
				c-0.17,0.336-0.116,0.741,0.134,1.006c0.25,0.266,0.65,0.343,0.996,0.193l0.177-0.077l0.904,0.958l-0.087,0.172
				c-0.17,0.336-0.116,0.74,0.134,1.006c0.251,0.265,0.651,0.343,0.996,0.193l0.177-0.077l0.903,0.958l-0.087,0.172
				c-0.17,0.336-0.116,0.74,0.134,1.006c0.25,0.266,0.65,0.343,0.996,0.193l0.177-0.077l0.904,0.958l-0.087,0.172
				c-0.17,0.336-0.116,0.74,0.134,1.006c0.251,0.265,0.651,0.343,0.996,0.193l0.177-0.077l1.26,1.336L48.121,65.275z M46.655,62.92
				l1.488,1.579l31.696-29.887l-0.628-0.666c-0.51,0.143-1.065-0.001-1.428-0.386c-0.364-0.386-0.475-0.948-0.302-1.448
				l-0.394-0.418c-0.51,0.144-1.064,0-1.428-0.387c-0.364-0.386-0.476-0.947-0.302-1.448l-0.393-0.418
				c-0.511,0.145-1.065-0.001-1.428-0.386c-0.364-0.386-0.475-0.948-0.302-1.448l-0.394-0.418c-0.51,0.144-1.064-0.001-1.428-0.387
				c-0.364-0.385-0.475-0.947-0.302-1.448l-0.394-0.417c-0.511,0.142-1.065-0.001-1.428-0.387c-0.364-0.386-0.475-0.948-0.302-1.448
				l-0.805-0.854L36.486,52.135l1.488,1.579c2.607-1.613,5.976-1.183,8.095,1.063C48.187,57.024,48.418,60.412,46.655,62.92z"/>
		</g>
		<g>
			<path style="fill:#EE6869;" d="M59.353,40.887c0.159-0.134,0.313-0.265,0.463-0.392l-1.8-5.718
				c-0.132-0.419,0.142-0.659,0.507-1.142l2.465,4.496l0.711,0.754c0.345-0.296,0.657-0.563,0.938-0.802
				c0.433-0.368,0.795-0.668,1.1-0.906l-0.352-2.259l0.386-0.364l1.097,1.931c0.009-0.002,0.017-0.004,0.026-0.006l0.565-0.533
				c0.076-0.072,0.196-0.068,0.268,0.008c0.072,0.076,0.068,0.196-0.008,0.268l-0.565,0.533c-0.002,0.008-0.005,0.017-0.007,0.025
				l1.863,1.208l-0.386,0.364l-2.235-0.484c-0.256,0.291-0.576,0.634-0.969,1.045c-0.255,0.267-0.54,0.562-0.856,0.889l0.711,0.754
				l4.343,2.725c-0.504,0.336-0.759,0.596-1.17,0.44l-5.603-2.132c-0.136,0.143-0.275,0.289-0.419,0.439
				c-1.48,1.524-2.368,2.208-3.109,1.853C57.01,43.121,57.745,42.276,59.353,40.887z"/>
		</g>
	</g>
	<g>
		<g>
			<path style="fill:#4C5EA9;" d="M84.897,67.163l-44.663-0.095l0.003-1.836l0.182-0.065c0.355-0.127,0.594-0.458,0.594-0.823
				c0.001-0.365-0.237-0.697-0.59-0.825l-0.181-0.066l0.002-1.317l0.182-0.065c0.355-0.127,0.594-0.458,0.594-0.823
				c0.001-0.365-0.237-0.697-0.591-0.825l-0.182-0.066l0.003-1.317l0.182-0.065c0.355-0.127,0.593-0.458,0.594-0.823
				s-0.237-0.697-0.591-0.825l-0.182-0.066l0.003-1.317l0.182-0.065c0.354-0.127,0.593-0.458,0.594-0.823
				c0.001-0.365-0.237-0.697-0.591-0.825l-0.181-0.066l0.002-1.317l0.182-0.065c0.355-0.127,0.593-0.458,0.594-0.823
				s-0.237-0.697-0.591-0.825l-0.181-0.066l0.005-2.094l44.663,0.095l-0.007,3.179L84.7,52.289
				c-2.858,0.475-4.937,2.921-4.943,5.817c-0.006,2.896,2.062,5.352,4.918,5.838l0.229,0.039L84.897,67.163z M40.785,66.519
				l43.564,0.093l0.005-2.17c-3.002-0.621-5.153-3.25-5.146-6.338c0.006-3.088,2.168-5.708,5.173-6.316l0.005-2.169l-43.564-0.093
				l-0.003,1.173c0.469,0.247,0.773,0.733,0.771,1.263c-0.001,0.531-0.306,1.015-0.777,1.259l-0.001,0.574
				c0.469,0.247,0.772,0.733,0.771,1.263c-0.001,0.531-0.306,1.015-0.777,1.259l-0.001,0.574c0.469,0.247,0.772,0.732,0.771,1.263
				c-0.001,0.531-0.306,1.015-0.777,1.259l-0.001,0.574c0.469,0.247,0.772,0.732,0.771,1.263c-0.001,0.53-0.306,1.015-0.777,1.259
				l-0.001,0.574c0.469,0.247,0.772,0.732,0.771,1.263c-0.001,0.53-0.306,1.015-0.777,1.259L40.785,66.519z"/>
		</g>
		<g>
			<path style="fill:#FFFFFF;" d="M84.655,52.018l0.006-2.673l-44.113-0.094l-0.003,1.626c0.447,0.162,0.773,0.582,0.772,1.084
				c-0.001,0.501-0.328,0.92-0.776,1.081l-0.002,0.931c0.447,0.162,0.773,0.582,0.772,1.084c-0.001,0.501-0.328,0.92-0.776,1.081
				l-0.002,0.931c0.447,0.162,0.773,0.582,0.772,1.084c-0.001,0.501-0.328,0.92-0.776,1.081l-0.002,0.931
				c0.447,0.162,0.773,0.582,0.772,1.084c-0.001,0.501-0.328,0.92-0.776,1.081l-0.002,0.931c0.447,0.162,0.773,0.582,0.772,1.084
				c-0.001,0.501-0.328,0.92-0.776,1.081l-0.003,1.368l44.113,0.094l0.006-2.673c-2.926-0.498-5.153-3.043-5.146-6.11
				S81.727,52.504,84.655,52.018z"/>
		</g>
		<g style="opacity:0.24;">
			<g>
				<path style="fill:#C4E4F8;" d="M41.237,54.67l39.261,0.084c0.929-1.421,2.414-2.447,4.157-2.736l0.006-2.673l-44.113-0.094
					l-0.003,1.626c0.447,0.162,0.773,0.582,0.772,1.084c-0.001,0.501-0.328,0.92-0.776,1.081l-0.002,0.931
					C40.862,54.091,41.119,54.348,41.237,54.67z"/>
			</g>
		</g>
		<g>
			<path style="fill:#4C5EA9;" d="M84.897,67.163l-44.663-0.095l0.003-1.836l0.182-0.065c0.355-0.127,0.594-0.458,0.594-0.823
				c0.001-0.365-0.237-0.697-0.59-0.825l-0.181-0.066l0.002-1.317l0.182-0.065c0.355-0.127,0.594-0.458,0.594-0.823
				c0.001-0.365-0.237-0.697-0.591-0.825l-0.182-0.066l0.003-1.317l0.182-0.065c0.355-0.127,0.593-0.458,0.594-0.823
				s-0.237-0.697-0.591-0.825l-0.182-0.066l0.003-1.317l0.182-0.065c0.354-0.127,0.593-0.458,0.594-0.823
				c0.001-0.365-0.237-0.697-0.591-0.825l-0.181-0.066l0.002-1.317l0.182-0.065c0.355-0.127,0.593-0.458,0.594-0.823
				s-0.237-0.697-0.591-0.825l-0.181-0.066l0.005-2.094l44.663,0.095l-0.007,3.179L84.7,52.289
				c-2.858,0.475-4.937,2.921-4.943,5.817c-0.006,2.896,2.062,5.352,4.918,5.838l0.229,0.039L84.897,67.163z M40.785,66.519
				l43.564,0.093l0.005-2.17c-3.002-0.621-5.153-3.25-5.146-6.338c0.006-3.088,2.168-5.708,5.173-6.316l0.005-2.169l-43.564-0.093
				l-0.003,1.173c0.469,0.247,0.773,0.733,0.771,1.263c-0.001,0.531-0.306,1.015-0.777,1.259l-0.001,0.574
				c0.469,0.247,0.772,0.733,0.771,1.263c-0.001,0.531-0.306,1.015-0.777,1.259l-0.001,0.574c0.469,0.247,0.772,0.732,0.771,1.263
				c-0.001,0.531-0.306,1.015-0.777,1.259l-0.001,0.574c0.469,0.247,0.772,0.732,0.771,1.263c-0.001,0.53-0.306,1.015-0.777,1.259
				l-0.001,0.574c0.469,0.247,0.772,0.732,0.771,1.263c-0.001,0.53-0.306,1.015-0.777,1.259L40.785,66.519z"/>
		</g>
		<g>
			<path style="fill:#4CBFAC;" d="M66.572,57.294c-0.208,0.011-0.409,0.021-0.606,0.031l-2.602-5.401
				c-0.191-0.396-0.555-0.383-1.152-0.485l1.28,4.965l-0.002,1.037c-0.454,0.02-0.865,0.039-1.233,0.057
				c-0.568,0.029-1.037,0.057-1.422,0.093l-1.29-1.888l-0.531-0.001l0.522,2.159c-0.008,0.004-0.015,0.009-0.023,0.013l-0.777-0.002
				c-0.105,0-0.19,0.084-0.19,0.189c0,0.105,0.085,0.19,0.189,0.19l0.776,0.002c0.007,0.005,0.015,0.009,0.023,0.013l-0.531,2.156
				l0.531,0.001l1.298-1.883c0.385,0.037,0.854,0.068,1.422,0.099c0.368,0.02,0.778,0.041,1.233,0.063l-0.002,1.037l-1.301,4.96
				c0.598-0.1,0.961-0.086,1.154-0.48l2.625-5.39c0.197,0.011,0.398,0.022,0.606,0.034c2.122,0.098,3.237-0.011,3.535-0.777
				C69.809,57.319,68.694,57.205,66.572,57.294z"/>
		</g>
	</g>
	<g>
		<g>
			<path style="fill:#FFFFFF;" d="M49.501,66.978H13.425c-0.856,0-1.557-0.701-1.557-1.557V38.768c0-0.856,0.701-1.557,1.557-1.557
				h36.076c0.856,0,1.557,0.701,1.557,1.557v26.653C51.058,66.277,50.358,66.978,49.501,66.978z"/>
		</g>
		<g>
			<path style="fill:#4C5EA9;" d="M49.501,67.253H13.425c-1.01,0-1.832-0.822-1.832-1.832V38.768c0-1.01,0.822-1.832,1.832-1.832
				h36.076c1.01,0,1.832,0.822,1.832,1.832v26.653C51.333,66.431,50.511,67.253,49.501,67.253z M13.425,37.486
				c-0.707,0-1.283,0.575-1.283,1.282v26.653c0,0.707,0.575,1.283,1.283,1.283h36.076c0.707,0,1.283-0.575,1.283-1.283V38.768
				c0-0.707-0.575-1.282-1.283-1.282H13.425z"/>
		</g>
		<g>
			<path style="fill:#EE6869;" d="M19.625,64.8h23.677c0.86,0,1.557-0.697,1.557-1.557v-0.382c0-0.86-0.697-1.557-1.557-1.557
				H19.625c-0.86,0-1.557,0.697-1.557,1.557v0.382C18.068,64.103,18.765,64.8,19.625,64.8z"/>
		</g>
		<g>
			<rect x="15.853" y="39.536" style="fill:#4C5EA9;" width="31.441" height="0.664"/>
		</g>
		<g>
			<path style="fill:#4C5EA9;" d="M43.302,65.075H19.625c-1.01,0-1.832-0.822-1.832-1.832v-1.092c0-1.01,0.822-1.832,1.832-1.832
				h23.677c1.01,0,1.832,0.822,1.832,1.832v1.092C45.133,64.253,44.312,65.075,43.302,65.075z M19.625,60.868
				c-0.707,0-1.283,0.575-1.283,1.283v1.092c0,0.707,0.575,1.283,1.283,1.283h23.677c0.707,0,1.282-0.575,1.282-1.283v-1.092
				c0-0.707-0.575-1.283-1.282-1.283H19.625z"/>
		</g>
		<g>
			<g>
				<path style="fill:#C7E1F5;" d="M44.945,48.365l6.758,0c0.8,0,1.448,0.648,1.448,1.448v5.112c0,0.8-0.648,1.448-1.448,1.448
					h-6.879c-2.41,0-4.341-2.158-3.954-4.638C41.176,49.768,42.954,48.365,44.945,48.365z"/>
			</g>
			<g>
				<path style="fill:#4C5EA9;" d="M51.703,56.648h-6.879c-1.248,0-2.432-0.547-3.249-1.502c-0.814-0.951-1.17-2.209-0.976-3.452
					c0.32-2.054,2.189-3.602,4.347-3.602h6.758c0.95,0,1.723,0.773,1.723,1.723v5.112C53.426,55.875,52.653,56.648,51.703,56.648z
					 M44.945,48.64c-1.89,0-3.526,1.349-3.804,3.138c-0.169,1.084,0.141,2.181,0.851,3.01c0.713,0.833,1.745,1.31,2.832,1.31h6.879
					c0.647,0,1.173-0.526,1.173-1.173v-5.112c0-0.647-0.526-1.173-1.173-1.173H44.945z"/>
			</g>
			<g>
				<g>
					<circle style="fill:#4C5EA9;" cx="45.057" cy="52.369" r="2.085"/>
				</g>
				<g>
					<circle style="fill:#FFFFFF;" cx="45.057" cy="52.369" r="0.83"/>
				</g>
			</g>
		</g>
	</g>
	<g>
		<g>
			<g>
				<g>
					<path style="fill:#4C5EA9;" d="M40.416,29.242c-0.741,0.556-0.844,1.553-1.135,2.369c-0.301,0.844-0.879,1.518-1.744,1.813
						c-0.412,0.141-0.857,0.192-1.289,0.124c-0.537-0.084-1.013-0.373-1.546-0.471c-1.109-0.204-2.252,0.276-3.087,0.988
						c-0.988,0.843-1.63,2.01-2.229,3.141c-0.09,0.169-0.371,0.061-0.28-0.111c0.984-1.859,2.239-3.941,4.503-4.317
						c0.481-0.08,0.975-0.06,1.445,0.074c0.556,0.158,1.056,0.443,1.651,0.425c1.065-0.033,1.903-0.727,2.268-1.701
						c0.334-0.893,0.437-1.955,1.253-2.568C40.381,28.892,40.571,29.125,40.416,29.242L40.416,29.242z"/>
				</g>
			</g>
			<g>
				<g>
					<g>
						<path style="fill:#C7E1F5;" d="M56.101,17.661l-5.769-5.302c-0.296-0.272-0.757-0.253-1.029,0.043l-9.808,10.671
							c-0.176,0.192-0.237,0.463-0.159,0.711l0.658,5.073c0.078,0.248,0.282,0.436,0.536,0.493l5.111,0.229
							c0.254,0.057,0.519-0.026,0.695-0.218l9.808-10.671C56.417,18.394,56.397,17.933,56.101,17.661z M44.284,26.579
							c-0.468,0.509-1.26,0.543-1.77,0.075c-0.509-0.468-0.543-1.26-0.075-1.77c0.468-0.509,1.26-0.543,1.77-0.075
							C44.719,25.277,44.752,26.069,44.284,26.579z"/>
					</g>
				</g>
				<g>
					<path style="fill:#4C5EA9;" d="M45.799,29.87c-0.072,0-0.145-0.008-0.217-0.024l-5.063-0.223
						c-0.396-0.084-0.679-0.345-0.786-0.685l-0.669-5.12c-0.097-0.294-0.013-0.669,0.229-0.932l9.807-10.67
						c0.181-0.197,0.429-0.312,0.696-0.323c0.266-0.01,0.524,0.083,0.721,0.264l5.769,5.302c0.407,0.374,0.434,1.01,0.06,1.417
						l-9.807,10.67C46.348,29.755,46.077,29.87,45.799,29.87z M39.698,23.258c-0.109,0.119-0.147,0.289-0.099,0.443l0.669,5.12
						c0.038,0.107,0.166,0.225,0.324,0.26l5.063,0.223c0.204,0.042,0.371-0.01,0.48-0.129l9.808-10.671
						c0.082-0.089,0.124-0.205,0.119-0.326c-0.005-0.121-0.057-0.233-0.146-0.315l-5.769-5.302
						c-0.089-0.082-0.206-0.124-0.326-0.119c-0.121,0.005-0.233,0.057-0.315,0.146L39.698,23.258z"/>
				</g>
				<g>
					<path style="fill:#4C5EA9;" d="M43.362,27.258c-0.37,0-0.74-0.133-1.033-0.402c-0.62-0.57-0.661-1.538-0.091-2.158
						c0.57-0.619,1.538-0.66,2.158-0.091l0,0c0.62,0.57,0.661,1.538,0.091,2.158C44.186,27.092,43.774,27.258,43.362,27.258z
						 M43.362,24.754c-0.264,0-0.528,0.106-0.72,0.316c-0.365,0.397-0.339,1.017,0.058,1.382c0.397,0.365,1.017,0.339,1.382-0.058
						c0.365-0.397,0.339-1.017-0.058-1.382C43.836,24.839,43.599,24.754,43.362,24.754z"/>
				</g>
			</g>
		</g>
		<g>
			<path style="fill:#EE6869;" d="M47.416,22.201c-0.242,0.281-0.526,0.43-0.851,0.448c-0.326,0.018-0.639-0.102-0.94-0.362
				c-0.328-0.283-0.509-0.599-0.545-0.947c-0.035-0.349,0.078-0.675,0.34-0.979c0.252-0.291,0.535-0.444,0.85-0.458
				c0.316-0.014,0.631,0.115,0.947,0.387c0.325,0.28,0.504,0.593,0.538,0.938C47.79,21.575,47.677,21.899,47.416,22.201z
				 M45.891,20.796c-0.231,0.268-0.16,0.562,0.211,0.882c0.353,0.304,0.638,0.328,0.858,0.073c0.224-0.26,0.153-0.548-0.214-0.865
				C46.389,20.579,46.104,20.549,45.891,20.796z M47.898,17.599l1.73,5.968l-0.578,0.671l-1.734-5.962L47.898,17.599z
				 M51.532,21.469c-0.242,0.281-0.525,0.43-0.851,0.448c-0.326,0.018-0.639-0.102-0.939-0.362c-0.328-0.283-0.51-0.599-0.546-0.947
				c-0.035-0.348,0.078-0.674,0.341-0.979c0.253-0.293,0.536-0.447,0.849-0.462c0.313-0.014,0.627,0.114,0.942,0.386
				c0.325,0.28,0.505,0.593,0.541,0.941C51.905,20.842,51.793,21.167,51.532,21.469z M50,20.072c-0.229,0.266-0.158,0.56,0.215,0.88
				c0.352,0.303,0.639,0.326,0.862,0.067c0.224-0.26,0.153-0.548-0.214-0.864c-0.171-0.147-0.333-0.226-0.486-0.237
				C50.223,19.907,50.097,19.958,50,20.072z"/>
		</g>
	</g>
</g>
</svg>
