<?xml version="1.0" encoding="iso-8859-1"?>
<!-- Generator: Adobe Illustrator 21.1.0, SVG Export Plug-In . SVG Version: 6.00 Build 0)  -->
<svg version="1.1" id="Layer_1" xmlns="http://www.w3.org/2000/svg" xmlns:xlink="http://www.w3.org/1999/xlink" x="0px" y="0px"
	 viewBox="0 0 100 70" style="enable-background:new 0 0 100 70;" xml:space="preserve">
<path style="opacity:0.24;fill:#C4E4F8;" d="M94.401,33.73c-2.414-2.347-12.367-5.6-13.218-8.876l-1.352-5.203
	c-2.154-12.907-17.62-16.847-26.59-9.099c-6.875,5.938-15.672,10.139-30.408,6.63C16.09,15.576,8.137,20.512,7.64,27.426
	c-0.131,1.819,2.727,9.984,3.345,11.836c1.662,4.985-1.986,14.917-2.586,22.311c-0.222,2.74,1.126,5.246,3.328,7.448H86.58
	c4.264-5.598,10.789-14.752,12.237-20.11C100.294,43.437,98.537,37.751,94.401,33.73z"/>
<path style="fill:#4C5EA9;" d="M6.955,69.908h83.608c0.474,0,0.863-0.388,0.863-0.863v-0.049c0-0.474-0.388-0.863-0.863-0.863H6.955
	c-0.474,0-0.863,0.388-0.863,0.863v0.049C6.092,69.52,6.48,69.908,6.955,69.908z"/>
<g>
	<g id="XMLID_1853_">
		<g id="XMLID_1049_">
			<path style="fill:#FFFFFF;" d="M80.887,63.492c0,0.985-0.799,1.784-1.784,1.784H20.021c-0.985,0-1.784-0.799-1.784-1.784V27.408
				c0-0.985,0.799-1.784,1.784-1.784h59.081c0.985,0,1.784,0.799,1.784,1.784V63.492z"/>
		</g>
		<g id="XMLID_2_">
			<path style="fill:#4C5EA9;" d="M79.103,65.533H20.021c-1.126,0-2.042-0.916-2.042-2.042V27.408c0-1.126,0.916-2.042,2.042-2.042
				h59.081c1.126,0,2.042,0.916,2.042,2.042v36.083C81.145,64.617,80.229,65.533,79.103,65.533z M20.021,25.881
				c-0.842,0-1.527,0.685-1.527,1.527v36.083c0,0.842,0.685,1.527,1.527,1.527h59.081c0.842,0,1.527-0.685,1.527-1.527V27.408
				c0-0.842-0.685-1.527-1.527-1.527H20.021z"/>
		</g>
		<g id="XMLID_1048_">
			<rect x="21.855" y="29.193" style="fill:#C7E1F5;" width="55.414" height="32.515"/>
		</g>
		<g id="XMLID_1047_">
			<path style="fill:#FFFFFF;" d="M82.647,68.448H16.477c-0.911,0-4.023-4.56-3.037-4.56h72.245
				C86.67,63.888,83.558,68.448,82.647,68.448z"/>
		</g>
		<g id="XMLID_3_">
			<path style="fill:#4C5EA9;" d="M82.647,68.705h-66.17c-0.97,0-3.485-3.56-3.485-4.593c0-0.292,0.176-0.481,0.448-0.481h72.245
				c0.272,0,0.448,0.189,0.448,0.481C86.132,65.145,83.618,68.705,82.647,68.705z M13.505,64.145
				c0.022,0.325,0.553,1.397,1.467,2.589c0.814,1.061,1.355,1.456,1.505,1.456h66.17c0.15,0,0.692-0.395,1.505-1.456
				c0.914-1.192,1.446-2.265,1.467-2.59H13.505z"/>
		</g>
		<g id="XMLID_1046_">
			<path style="fill:#C7E1F5;" d="M84.737,66.168h-69.49c-0.345,0-0.651,0.157-0.86,0.4c0.718,0.992,1.548,1.88,1.95,1.88h66.17
				C82.963,68.448,83.969,67.308,84.737,66.168z"/>
		</g>
		<g id="XMLID_4_">
			<path style="fill:#4C5EA9;" d="M82.507,68.705h-66.17c-0.627,0-1.621-1.245-2.158-1.987l-0.119-0.165l0.133-0.154
				c0.267-0.311,0.652-0.489,1.055-0.489h69.974l-0.27,0.401C84.681,66.712,83.297,68.705,82.507,68.705z M14.729,66.599
				c0.818,1.096,1.427,1.592,1.608,1.592h66.17c0.204,0,0.912-0.624,1.737-1.765H15.247C15.06,66.425,14.879,66.487,14.729,66.599z"
				/>
		</g>
		<g id="XMLID_1041_">
			<path style="fill:#4C5EA9;" d="M54.063,64.285c0,0.338-0.274,0.612-0.612,0.612h-7.777c-0.338,0-0.612-0.274-0.612-0.612l0,0
				c0-0.338,0.274-0.612,0.612-0.612h7.777C53.789,63.672,54.063,63.946,54.063,64.285L54.063,64.285z"/>
		</g>
		<g id="XMLID_5_">
			<path style="fill:#EE6869;" d="M54.063,64.285c0,0.338-0.274,0.612-0.612,0.612h-7.777c-0.338,0-0.612-0.274-0.612-0.612l0,0
				c0-0.338,0.274-0.612,0.612-0.612h7.777C53.789,63.672,54.063,63.946,54.063,64.285L54.063,64.285z"/>
		</g>
		<g id="XMLID_21_">
			<path style="fill:#4C5EA9;" d="M53.451,65.154h-7.777c-0.479,0-0.87-0.39-0.87-0.869c0-0.479,0.39-0.87,0.87-0.87h7.777
				c0.48,0,0.87,0.39,0.87,0.87C54.32,64.764,53.93,65.154,53.451,65.154z M45.673,63.929c-0.196,0-0.355,0.159-0.355,0.355
				c0,0.195,0.159,0.355,0.355,0.355h7.777c0.196,0,0.355-0.159,0.355-0.355c0-0.196-0.159-0.355-0.355-0.355H45.673z"/>
		</g>
	</g>
	
		<rect id="XMLID_1_" x="21.855" y="29.193" style="fill:none;stroke:#4C5EA9;stroke-miterlimit:10;" width="55.414" height="32.515"/>
	<g>
		<g>
			<g>
				<g>
					<path style="fill:#FFFFFF;" d="M37.321,52.339v-0.067c0-0.647,0.529-1.176,1.176-1.176h22.13c0.647,0,1.176,0.529,1.176,1.176
						v0.067c0,0.647-0.529,1.176-1.176,1.176h-22.13C37.851,53.515,37.321,52.986,37.321,52.339z"/>
				</g>
				<g>
					<g>
						<path style="fill:#4C5EA9;" d="M38.531,50.794h22.063c0.834,0,1.512,0.678,1.512,1.512s-0.678,1.512-1.512,1.512H38.531
							c-0.834,0-1.512-0.678-1.512-1.512S37.697,50.794,38.531,50.794z M60.593,51.399H38.531c-0.5,0-0.907,0.407-0.907,0.907
							s0.407,0.907,0.907,0.907h22.063c0.5,0,0.907-0.407,0.907-0.907S61.094,51.399,60.593,51.399z"/>
					</g>
				</g>
			</g>
			<g>
				<g>
					<path style="fill:#FFFFFF;" d="M57.75,53.343l0.168-29.645l-1.282-0.009c-0.154,0.418-0.549,0.721-1.019,0.718
						c-0.47-0.003-0.861-0.311-1.009-0.732l-0.872-0.006c-0.154,0.418-0.549,0.721-1.019,0.718c-0.47-0.003-0.861-0.311-1.009-0.732
						l-0.872-0.006c-0.154,0.418-0.549,0.721-1.019,0.718c-0.47-0.003-0.861-0.311-1.009-0.732l-0.872-0.006
						c-0.154,0.418-0.549,0.721-1.019,0.718c-0.47-0.003-0.861-0.311-1.009-0.732l-0.872-0.006
						c-0.154,0.418-0.549,0.721-1.019,0.718c-0.47-0.003-0.861-0.311-1.009-0.732l-1.524-0.01l-0.169,29.756H57.75z"/>
				</g>
				<g style="opacity:0.24;">
					<g>
						<path style="fill:#C4E4F8;" d="M46.391,53.343l0.165-29.065c-0.301-0.113-0.539-0.355-0.647-0.661l-0.872-0.006
							c-0.154,0.418-0.549,0.721-1.019,0.718c-0.47-0.003-0.861-0.311-1.009-0.732l-1.524-0.01l-0.169,29.756H46.391z"/>
					</g>
				</g>
				<g>
					<path style="fill:#4C5EA9;" d="M58.005,53.601H41.057l0.172-30.272l1.962,0.013l0.06,0.17c0.117,0.333,0.426,0.558,0.768,0.56
						c0.002,0,0.004,0,0.005,0c0.34,0,0.649-0.22,0.77-0.55l0.063-0.17l1.234,0.008l0.06,0.17c0.117,0.333,0.426,0.558,0.768,0.56
						c0.002,0,0.004,0,0.005,0c0.34,0,0.649-0.22,0.77-0.55l0.063-0.17l1.234,0.008l0.06,0.17c0.117,0.333,0.426,0.558,0.768,0.56
						c0.327,0.004,0.653-0.219,0.775-0.55l0.063-0.17l1.234,0.009l0.06,0.17c0.117,0.333,0.426,0.558,0.768,0.56
						c0.002,0,0.004,0,0.006,0c0.34,0,0.649-0.22,0.77-0.55l0.063-0.17l1.234,0.008l0.06,0.17c0.117,0.333,0.426,0.558,0.768,0.56
						c0.002,0,0.004,0,0.005,0c0.34,0,0.649-0.22,0.77-0.55l0.063-0.17l1.72,0.012L58.005,53.601z M41.574,53.086h15.919
						l0.165-29.132l-0.857-0.006c-0.232,0.436-0.684,0.717-1.178,0.717c-0.003,0-0.006,0-0.009,0
						c-0.497-0.004-0.949-0.291-1.177-0.733l-0.537-0.004c-0.231,0.436-0.684,0.717-1.177,0.717c-0.003,0-0.006,0-0.009,0
						c-0.497-0.004-0.949-0.291-1.176-0.733l-0.538-0.004c-0.233,0.438-0.69,0.727-1.186,0.717
						c-0.497-0.003-0.949-0.291-1.176-0.733l-0.537-0.004c-0.232,0.436-0.684,0.717-1.178,0.717c-0.003,0-0.006,0-0.009,0
						c-0.497-0.004-0.949-0.291-1.177-0.733l-0.537-0.004c-0.232,0.436-0.684,0.717-1.178,0.717c-0.003,0-0.006,0-0.009,0
						c-0.497-0.004-0.949-0.291-1.176-0.733l-1.099-0.007L41.574,53.086z"/>
				</g>
			</g>
		</g>
		<g>
			<circle style="fill:#C7E1F5;" cx="50.34" cy="43.605" r="2.959"/>
		</g>
		<g>
			<rect x="55.743" y="32.327" style="fill:#C7E1F5;" width="0.643" height="19.17"/>
		</g>
		<g>
			<rect x="55.743" y="25.379" style="fill:#C7E1F5;" width="0.643" height="5.357"/>
		</g>
		<g>
			<rect x="48.667" y="25.937" style="fill:#C7E1F5;" width="5.396" height="12.529"/>
		</g>
		<g>
			<rect x="43.935" y="49.83" style="fill:#C7E1F5;" width="9.363" height="1.432"/>
		</g>
	</g>
	<g>
		<g>
			<g>
				<g>
					<polygon style="fill:#C4E4F8;" points="18.098,19.164 20.712,15.353 21.73,15.353 20.712,19.523 					"/>
				</g>
				<g>
					<polygon style="fill:#C4E4F8;" points="18.098,20.593 20.712,24.404 21.73,24.404 20.712,20.234 					"/>
				</g>
			</g>
			<g>
				<g>
					<path style="fill:#4C5EA9;" d="M20.907,19.809l-3.257-0.447l2.927-4.266h1.481L20.907,19.809z M18.546,18.965l1.971,0.271
						l0.885-3.626h-0.555L18.546,18.965z"/>
				</g>
				<g>
					<path style="fill:#4C5EA9;" d="M22.058,24.661h-1.481l-2.927-4.266l3.257-0.447L22.058,24.661z M20.848,24.146h0.555
						l-0.885-3.626l-1.971,0.271L20.848,24.146z"/>
				</g>
			</g>
			<g style="opacity:0.24;">
				<g>
					<g>
						<path style="fill:#C4E4F8;" d="M8.233,18.772h4.909v-2.091l2.474-9.515c-1.145,0.194-1.843,0.168-2.21,0.926L8.233,18.772z"/>
					</g>
				</g>
				<g>
					<g>
						<path style="fill:#C4E4F8;" d="M8.233,20.985h4.909v2.09l2.474,9.515c-1.145-0.194-1.843-0.168-2.21-0.926L8.233,20.985z"/>
					</g>
				</g>
			</g>
			<g>
				<g>
					<g>
						<g>
							<path style="fill:#4C5EA9;" d="M13.4,19.03H7.822L13.175,7.98c0.37-0.763,1.013-0.858,1.903-0.99
								c0.155-0.023,0.32-0.047,0.496-0.077l0.392-0.066L13.4,16.715V19.03z M8.643,18.515h4.242l0.008-1.898l2.376-9.135
								C15.23,7.488,15.191,7.494,15.153,7.5c-0.876,0.13-1.274,0.209-1.515,0.705L8.643,18.515z"/>
						</g>
					</g>
				</g>
				<g>
					<g>
						<g>
							<path style="fill:#4C5EA9;" d="M15.966,32.91l-0.392-0.066c-0.176-0.03-0.342-0.055-0.498-0.078
								c-0.889-0.132-1.532-0.227-1.901-0.99L7.822,20.728H13.4v2.315L15.966,32.91z M8.643,21.242l4.995,10.31
								c0.24,0.497,0.638,0.575,1.513,0.705c0.038,0.006,0.078,0.012,0.117,0.018l-2.384-9.199v-1.833H8.643z"/>
						</g>
					</g>
				</g>
			</g>
			<g>
				<path style="fill:#EE6869;" d="M15.506,18.785c-2.04-0.107-4.74-0.216-8.273-0.41c-4.069-0.178-6.207,0.034-6.775,1.504
					c0.567,1.469,2.705,1.682,6.775,1.503c3.533-0.194,6.233-0.302,8.273-0.41c3.728-0.196,5.251-0.388,5.627-1.094
					C20.757,19.173,19.234,18.981,15.506,18.785z"/>
			</g>
			<g>
				<path style="fill:#4C5EA9;" d="M5.111,21.694c-2.807,0-4.377-0.387-4.892-1.722l-0.036-0.093l0.036-0.093
					c0.634-1.643,2.863-1.851,7.026-1.668c2.165,0.119,4.015,0.206,5.593,0.28c1,0.047,1.891,0.089,2.682,0.13l0,0
					c4.002,0.211,5.407,0.418,5.841,1.23l0.064,0.121L21.36,20c-0.433,0.812-1.838,1.019-5.841,1.23
					c-0.797,0.042-1.695,0.084-2.703,0.131c-1.573,0.074-3.416,0.16-5.569,0.278C6.468,21.673,5.756,21.694,5.111,21.694z
					 M0.738,19.879c0.582,1.258,2.744,1.411,6.484,1.246c2.151-0.118,3.996-0.205,5.57-0.278c1.008-0.047,1.904-0.089,2.7-0.131
					c3.172-0.166,4.848-0.341,5.324-0.837c-0.476-0.496-2.153-0.67-5.324-0.837c-0.791-0.042-1.68-0.083-2.679-0.13
					c-1.579-0.074-3.43-0.161-5.594-0.28C3.482,18.468,1.32,18.62,0.738,19.879z"/>
			</g>
			<g>
				<path style="fill:#EE6869;" d="M22.253,20.242c0.2,0,0.363-0.163,0.363-0.363l0,0c0-0.201-0.163-0.363-0.363-0.363H19.04
					c-0.201,0-0.363,0.163-0.363,0.363l0,0c0,0.201,0.163,0.363,0.363,0.363H22.253z"/>
			</g>
			<g>
				<path style="fill:#4C5EA9;" d="M22.253,20.37H19.04c-0.271,0-0.492-0.221-0.492-0.492c0-0.271,0.221-0.492,0.492-0.492h3.213
					c0.271,0,0.492,0.221,0.492,0.492C22.745,20.15,22.524,20.37,22.253,20.37z M19.04,19.644c-0.129,0-0.235,0.105-0.235,0.234
					c0,0.129,0.105,0.235,0.235,0.235h3.213c0.129,0,0.235-0.105,0.235-0.235c0-0.129-0.105-0.234-0.235-0.234H19.04z"/>
			</g>
		</g>
		<g>
			<path style="fill:#4CBFAC;" d="M27.882,18.48c0.699,0,0.697-1.055,0-1.055h-4.247c-0.697,0-0.7,1.055,0,1.055H27.882z"/>
		</g>
		<g>
			<path style="fill:#4CBFAC;" d="M29.921,20.519c0.699,0,0.697-1.055,0-1.055h-4.247c-0.697,0-0.7,1.055,0,1.055H29.921z"/>
		</g>
		<g>
			<path style="fill:#4CBFAC;" d="M31.959,22.557c0.699,0,0.697-1.055,0-1.055h-4.247c-0.697,0-0.7,1.055,0,1.055H31.959z"/>
		</g>
		<g>
			<path style="fill:#4CBFAC;" d="M31.96,19.991l0.02-0.488c8.575,0.342,19.117,7.706,19.634,24.604h-2.711
				C48.42,25.392,37.567,20.708,31.941,20.479L31.96,19.991z"/>
		</g>
		<g>
			<path style="fill:#4CBFAC;" d="M31.96,19.991l0.02-0.488c8.575,0.342,19.117,7.706,19.634,24.604h-2.711
				C48.42,25.392,37.567,20.708,31.941,20.479L31.96,19.991z"/>
		</g>
		<g>
			<path style="fill:#4CBFAC;" d="M27.882,18.48c0.699,0,0.697-1.055,0-1.055h-4.247c-0.697,0-0.7,1.055,0,1.055H27.882z"/>
		</g>
		<g>
			<path style="fill:#4CBFAC;" d="M29.921,20.519c0.699,0,0.697-1.055,0-1.055h-4.247c-0.697,0-0.7,1.055,0,1.055H29.921z"/>
		</g>
		<g>
			<path style="fill:#4CBFAC;" d="M31.959,22.557c0.699,0,0.697-1.055,0-1.055h-4.247c-0.697,0-0.7,1.055,0,1.055H31.959z"/>
		</g>
	</g>
	<g>
		<g>
			<path style="fill:#F16469;" d="M70.053,43.156c0,0.404-0.611,0.403-0.611,0v-2.458c0-0.404,0.611-0.405,0.611,0V43.156z"/>
		</g>
		<g>
			<path style="fill:#F16469;" d="M67.961,43.769c0.286,0.286-0.147,0.717-0.432,0.432l-1.738-1.738
				c-0.286-0.285,0.145-0.719,0.432-0.432L67.961,43.769z"/>
		</g>
		<g>
			<path style="fill:#F16469;" d="M66.915,45.683c0.405,0,0.403,0.611,0,0.611h-2.458c-0.403,0-0.405-0.611,0-0.611L66.915,45.683z"
				/>
		</g>
		<g>
			<path style="fill:#F16469;" d="M67.529,47.775c0.286-0.286,0.717,0.147,0.432,0.432l-1.738,1.738
				c-0.285,0.285-0.718-0.146-0.432-0.432L67.529,47.775z"/>
		</g>
		<g>
			<path style="fill:#F16469;" d="M72.58,46.294c-0.405,0-0.403-0.611,0-0.611l2.458,0c0.404,0,0.405,0.611,0,0.611H72.58z"/>
		</g>
		<g>
			<path style="fill:#F16469;" d="M71.966,44.201c-0.286,0.286-0.717-0.147-0.432-0.432l1.738-1.739
				c0.285-0.285,0.718,0.146,0.432,0.432L71.966,44.201z"/>
		</g>
		<g>
			<g>
				<path style="fill:#FFFFFF;" d="M79.328,55.667V52.56c0-1.28-2.099-1.253-2.099,0v2.694l-0.397-0.078v-4.174
					c0-1.497-2.456-1.465-2.456,0v3.693l-0.397-0.078v-4.396c0-1.497-2.456-1.466-2.456,0v3.916l-0.397-0.078v-8.671
					c0-1.498-2.456-1.466-2.456,0v9.135c-0.682-1.526-2.395-5.186-4.719-3.724c-0.232,0.146-0.469,0.343-0.713,0.597
					c0.454,0.665,0.97,1.293,1.522,2.105c0.624,0.918,1.292,2.073,1.964,3.784c0,0-0.147,4.826,3.214,5.799v5.519h7.278v-5.488
					C77.547,63.036,79.794,62.242,79.328,55.667z"/>
			</g>
			<g>
				<path style="fill:#4C5EA9;" d="M64.719,53.901l-0.173-0.254c-0.29-0.427-0.57-0.803-0.837-1.159
					c-0.24-0.323-0.47-0.63-0.685-0.946l-0.118-0.172l0.144-0.151c0.252-0.263,0.508-0.477,0.761-0.637l0.151-0.095l0.142,0.107
					c0.212,0.16,0.254,0.235,0.664,0.952l0.372,0.649c0.281,0.486,0.197,1.099-0.204,1.49L64.719,53.901z M63.571,51.427
					c0.176,0.249,0.36,0.496,0.551,0.753c0.203,0.272,0.414,0.556,0.631,0.863c0.066-0.19,0.049-0.406-0.057-0.59l-0.373-0.651
					c-0.235-0.411-0.334-0.582-0.4-0.672C63.806,51.216,63.689,51.315,63.571,51.427z"/>
			</g>
			<g>
				<path style="fill:#4C5EA9;" d="M77.473,68.862H69.68v-5.588c-3.173-1.079-3.223-5.378-3.215-5.941
					c-0.73-1.847-1.444-2.987-1.919-3.686c-0.29-0.427-0.57-0.803-0.837-1.159c-0.24-0.323-0.47-0.63-0.685-0.946l-0.118-0.172
					l0.144-0.151c0.252-0.263,0.508-0.477,0.761-0.637c0.594-0.374,1.199-0.471,1.799-0.289c1.238,0.376,2.202,1.908,2.8,3.081
					v-7.986c0-1.785,2.971-1.809,2.971,0v4.265c0.55-1.211,2.853-1.025,2.854,0.568v0.219c0.082-0.182,0.206-0.341,0.367-0.47
					c0.271-0.216,0.63-0.335,1.011-0.335c0.733,0,1.476,0.47,1.476,1.368v1.026c0.368-0.749,1.499-0.849,2.076-0.383
					c0.275,0.222,0.42,0.538,0.42,0.913v3.098c0.423,6.004-1.398,7.349-2.113,7.644V68.862z M70.195,68.347h6.763v-5.432
					l0.196-0.048c0.244-0.06,2.372-0.766,1.918-7.182l-0.001-0.018V52.56c0-0.547-0.493-0.692-0.784-0.692
					c-0.386,0-0.801,0.217-0.801,0.692v3.007l-0.912-0.178v-4.385c0-0.59-0.482-0.854-0.961-0.854c-0.472,0-0.981,0.267-0.981,0.854
					v4.006l-0.912-0.178v-4.609c0-0.268-0.096-0.482-0.285-0.635c-0.487-0.394-1.657-0.272-1.657,0.635v4.229l-0.912-0.178v-8.883
					c0-0.59-0.483-0.854-0.961-0.854c-0.472,0-0.981,0.267-0.981,0.854v10.342l-0.492-1.102c-0.416-0.931-1.52-3.403-2.971-3.843
					c-0.457-0.138-0.907-0.063-1.376,0.232c-0.169,0.107-0.342,0.244-0.516,0.41c0.176,0.249,0.36,0.496,0.551,0.753
					c0.27,0.363,0.555,0.744,0.85,1.178c0.493,0.725,1.236,1.911,1.991,3.835l0.019,0.049l-0.002,0.053
					c-0.002,0.046-0.1,4.639,3.029,5.544l0.186,0.054V68.347z"/>
			</g>
			<g>
				<path style="fill:#4C5EA9;" d="M69.897,46.551c-0.569,0-1.031-0.463-1.031-1.031v-0.304c0-0.569,0.463-1.032,1.031-1.032
					c0.569,0,1.031,0.463,1.031,1.032v0.304C70.928,46.088,70.466,46.551,69.897,46.551z M69.897,44.698
					c-0.285,0-0.517,0.232-0.517,0.517v0.304c0,0.285,0.232,0.517,0.517,0.517c0.285,0,0.517-0.232,0.517-0.517v-0.304
					C70.414,44.93,70.182,44.698,69.897,44.698z"/>
			</g>
		</g>
		<g>
			<path style="fill:none;" d="M70.053,43.156c0,0.404-0.611,0.403-0.611,0v-2.458c0-0.404,0.611-0.405,0.611,0V43.156z"/>
		</g>
		<g>
			<path style="fill:none;" d="M67.961,43.769c0.286,0.286-0.147,0.717-0.432,0.432l-1.738-1.738
				c-0.286-0.285,0.145-0.719,0.432-0.432L67.961,43.769z"/>
		</g>
		<g>
			<path style="fill:none;" d="M66.915,45.683c0.405,0,0.403,0.611,0,0.611h-2.458c-0.403,0-0.405-0.611,0-0.611L66.915,45.683z"/>
		</g>
		<g>
			<path style="fill:none;" d="M67.529,47.775c0.286-0.286,0.717,0.147,0.432,0.432l-1.738,1.738
				c-0.285,0.285-0.718-0.146-0.432-0.432L67.529,47.775z"/>
		</g>
		<g>
			<path style="fill:none;" d="M72.58,46.294c-0.405,0-0.403-0.611,0-0.611l2.458,0c0.404,0,0.405,0.611,0,0.611H72.58z"/>
		</g>
		<g>
			<path style="fill:none;" d="M71.966,44.201c-0.286,0.286-0.717-0.147-0.432-0.432l1.738-1.739
				c0.285-0.285,0.718,0.146,0.432,0.432L71.966,44.201z"/>
		</g>
	</g>
</g>
</svg>
