<?xml version="1.0" encoding="iso-8859-1"?>
<!-- Generator: Adobe Illustrator 21.1.0, SVG Export Plug-In . SVG Version: 6.00 Build 0)  -->
<svg version="1.1" id="Layer_1" xmlns="http://www.w3.org/2000/svg" xmlns:xlink="http://www.w3.org/1999/xlink" x="0px" y="0px"
	 viewBox="0 0 100 70" style="enable-background:new 0 0 100 70;" xml:space="preserve">
<g>
	<path style="opacity:0.24;fill:#C4E4F8;" d="M94.477,30.354c-2.578-2.507-13.21-5.982-14.12-9.482l-1.444-5.558
		C76.613,1.527,60.091-2.681,50.509,5.595c-7.344,6.343-16.741,10.83-32.482,7.082C10.825,10.962,2.329,16.235,1.798,23.62
		c-0.14,1.943,2.914,10.665,3.573,12.644C7.147,41.589,3.25,52.198,2.61,60.096c-0.237,2.927,1.203,5.604,3.555,7.956h79.958
		c4.554-5.98,11.525-15.758,13.071-21.482C100.773,40.724,98.895,34.65,94.477,30.354z"/>
	<path style="fill:#4C5EA9;" d="M0.87,69h89.702c0.399,0,0.726-0.327,0.726-0.726V67.83c0-0.399-0.327-0.726-0.726-0.726H0.87
		c-0.399,0-0.726,0.327-0.726,0.726l0,0.444C0.144,68.673,0.471,69,0.87,69z"/>
	<g>
		<g>
			<path style="fill:#FFFFFF;" d="M36.271,17.994c0-8.226-6.669-14.895-14.895-14.895c-8.226,0-14.895,6.669-14.895,14.895
				c0,8.226,6.669,14.895,14.895,14.895h14.895v-14.66h-0.006C36.266,18.15,36.271,18.073,36.271,17.994z"/>
		</g>
		<g>
			<path style="fill:#EE6869;" d="M70.047,26.273h-0.009c-1.196,0-2.352-0.398-3.317-1.106c-2.324-1.706-5.194-2.714-8.299-2.714
				c-1.48,0-2.906,0.229-4.244,0.654h-0.001c-1.471,0.466-2.837,1.168-4.054,2.061c-0.965,0.708-2.121,1.106-3.317,1.106h-0.01
				c-1.531,0-2.313-1.853-1.233-2.937c1.962-1.971,4.374-3.493,7.07-4.399c1.818-0.612,3.764-0.943,5.788-0.943
				c5.01,0,9.546,2.031,12.83,5.315c0.009,0.009,0.017,0.017,0.026,0.027C72.36,24.42,71.579,26.273,70.047,26.273z"/>
		</g>
		<g>
			<path style="fill:#4C5EA9;" d="M70.047,26.548h-0.009c-1.243,0-2.446-0.401-3.479-1.159c-2.371-1.741-5.185-2.661-8.136-2.661
				c-1.422,0-2.822,0.216-4.161,0.641c-1.426,0.451-2.764,1.131-3.975,2.02c-1.033,0.759-2.236,1.159-3.479,1.159
				c-0.835,0-1.545-0.475-1.862-1.239c-0.315-0.758-0.152-1.588,0.425-2.168c2.009-2.018,4.491-3.563,7.177-4.466
				c1.887-0.635,3.864-0.957,5.876-0.957c4.92,0,9.546,1.916,13.024,5.395c0.604,0.607,0.767,1.438,0.453,2.196
				C71.582,26.074,70.873,26.548,70.047,26.548z M58.423,22.178c3.07,0,5.995,0.957,8.462,2.768
				c0.938,0.689,2.029,1.052,3.154,1.052h0.009c0.716,0,1.164-0.465,1.345-0.899c0.179-0.43,0.192-1.069-0.308-1.57
				c-3.401-3.402-7.888-5.261-12.662-5.261c-1.952,0-3.87,0.312-5.701,0.929c-2.606,0.876-5.013,2.375-6.962,4.333
				c-0.499,0.501-0.486,1.139-0.307,1.569c0.181,0.435,0.629,0.9,1.345,0.9c1.134,0,2.225-0.364,3.164-1.053
				c1.259-0.924,2.65-1.631,4.133-2.101C55.488,22.402,56.944,22.178,58.423,22.178z"/>
		</g>
		<g>
			<path style="fill:#FFFFFF;" d="M76.567,41.87c-0.401,0-0.726-0.325-0.726-0.726v-5.006c0-9.605-7.814-17.418-17.418-17.418
				c-9.605,0-17.418,7.814-17.418,17.418v5.006c0,0.401-0.325,0.726-0.726,0.726s-0.726-0.325-0.726-0.726v-5.006
				c0-10.406,8.465-18.871,18.871-18.871s18.871,8.465,18.871,18.871v5.006C77.293,41.545,76.968,41.87,76.567,41.87z"/>
		</g>
		<g>
			<path style="fill:#4C5EA9;" d="M76.567,42.145c-0.552,0-1.001-0.449-1.001-1.001v-5.006c0-9.453-7.691-17.143-17.144-17.143
				s-17.144,7.691-17.144,17.143v5.006c0,0.552-0.449,1.001-1.001,1.001c-0.552,0-1.001-0.449-1.001-1.001v-5.006
				c0-10.557,8.588-19.146,19.146-19.146s19.146,8.589,19.146,19.146v5.006C77.568,41.696,77.119,42.145,76.567,42.145z
				 M58.422,18.445c9.756,0,17.693,7.937,17.693,17.693v5.006c0,0.249,0.202,0.451,0.451,0.451c0.249,0,0.451-0.203,0.451-0.451
				v-5.006c0-10.254-8.342-18.596-18.596-18.596c-10.254,0-18.596,8.342-18.596,18.596v5.006c0,0.249,0.202,0.451,0.451,0.451
				c0.249,0,0.451-0.203,0.451-0.451v-5.006C40.729,26.382,48.666,18.445,58.422,18.445z"/>
		</g>
		<g>
			<g>
				<path style="fill:#EE6869;" d="M12.205,14.015c1.153-0.179,2.202-0.285,3.688-0.285c1.805,0,2.57,1.276,2.57,2.675
					c0,2.131-2.877,4.381-3.707,5.005h3.707v1.322h-6.168v-1.25c1.203-0.813,4.752-3.453,4.752-5.08
					c0-0.835-0.432-1.338-1.501-1.338h-3.341V14.015z"/>
			</g>
			<g>
				<path style="fill:#EE6869;" d="M21.87,13.851h1.577l-2.985,5.453h2.651v-2.201l0.408-0.922h1.001v3.124h0.964v1.098
					l-0.964,0.273v2.032h-1.408v-2.032h-4.257l-0.413-0.66L21.87,13.851z"/>
			</g>
		</g>
		<g>
			<g>
				<path style="fill:#EE6869;" d="M26.938,13.835h0.917V16.3c0.397-0.26,0.776-0.534,1.418-0.534c0.929,0,1.273,0.667,1.273,1.431
					v2.852h-0.92v-2.862c0-0.458-0.226-0.64-0.555-0.64c-0.515,0-0.783,0.132-1.213,0.397v3.106h-0.921V13.835z"/>
			</g>
		</g>
		<g>
			<path style="fill:#FFFFFF;" d="M67.817,65.251h-5.752c-0.401,0-0.726-0.325-0.726-0.726c0-0.401,0.325-0.726,0.726-0.726h5.752
				c4.424,0,8.024-3.599,8.024-8.024v-3.02c0-0.401,0.325-0.726,0.726-0.726c0.401,0,0.726,0.325,0.726,0.726v3.02
				C77.293,61,73.042,65.251,67.817,65.251z"/>
		</g>
		<g>
			<path style="fill:#4C5EA9;" d="M67.817,65.526h-5.752c-0.552,0-1.001-0.449-1.001-1.001c0-0.552,0.449-1.001,1.001-1.001h5.752
				c4.273,0,7.749-3.476,7.749-7.749v-3.02c0-0.552,0.449-1.001,1.001-1.001c0.552,0,1.001,0.449,1.001,1.001v3.02
				C77.568,61.152,73.194,65.526,67.817,65.526z M62.065,64.074c-0.249,0-0.451,0.203-0.451,0.451c0,0.249,0.202,0.451,0.451,0.451
				h5.752c5.074,0,9.202-4.128,9.202-9.201v-3.02c0-0.249-0.202-0.451-0.451-0.451c-0.249,0-0.451,0.203-0.451,0.451v3.02
				c0,4.576-3.722,8.299-8.299,8.299H62.065z"/>
		</g>
		<g>
			<path style="fill:#C7E1F5;" d="M47.685,38.238v15.243c0,0.082-0.004,0.165-0.012,0.245c-0.123,1.492-1.373,2.664-2.897,2.664
				h-1.589c-1.607,0-2.909-1.302-2.909-2.909V38.238c0-1.424,1.025-2.611,2.377-2.86c0.172-0.033,0.351-0.049,0.532-0.049h1.589
				C46.383,35.329,47.685,36.632,47.685,38.238z"/>
		</g>
		<g>
			<path style="fill:#C7E1F5;" d="M72.068,35.329h1.59c1.607,0,2.909,1.302,2.909,2.909v15.243c0,1.607-1.302,2.909-2.909,2.909
				h-1.59c-1.607,0-2.909-1.302-2.909-2.909V38.238C69.159,36.632,70.462,35.329,72.068,35.329z"/>
		</g>
		<g>
			<path style="fill:#EE6869;" d="M40.278,38.234v15.251h-2.066c-1.942,0-3.515-1.574-3.515-3.515v-8.22
				c0-1.505,0.946-2.79,2.276-3.292c0.385-0.145,0.804-0.225,1.24-0.225L40.278,38.234L40.278,38.234z"/>
		</g>
		<g>
			<path style="fill:#EE6869;" d="M82.148,41.751v8.22c0,1.942-1.575,3.515-3.516,3.515h-2.065V38.234h2.065
				C80.573,38.234,82.148,39.809,82.148,41.751z"/>
		</g>
		<g>
			<path style="fill:#4CBFAC;" d="M59.549,60.697h2.272c1.258,0,2.277,1.02,2.277,2.277l0,0c0,1.258-1.02,2.277-2.277,2.277h-2.272
				c-1.258,0-2.277-1.02-2.277-2.277l0,0C57.272,61.717,58.291,60.697,59.549,60.697z"/>
		</g>
		<g>
			<path style="fill:#4C5EA9;" d="M40.553,53.76h-2.341c-2.09,0-3.79-1.7-3.79-3.79v-8.22c0-1.569,0.986-2.995,2.454-3.549
				c0.426-0.161,0.876-0.242,1.336-0.242h2.341V53.76z M38.212,38.509c-0.394,0-0.778,0.07-1.142,0.207
				c-1.255,0.473-2.099,1.693-2.099,3.035v8.22c0,1.787,1.454,3.24,3.24,3.24h1.791V38.509H38.212z"/>
		</g>
		<g>
			<path style="fill:#4C5EA9;" d="M78.632,53.76h-2.34V37.959h2.34c2.09,0,3.791,1.701,3.791,3.791v8.22
				C82.423,52.06,80.722,53.76,78.632,53.76z M76.842,53.211h1.79c1.787,0,3.241-1.454,3.241-3.24v-8.22
				c0-1.787-1.454-3.241-3.241-3.241h-1.79V53.211z"/>
		</g>
		<g>
			<path style="fill:#4C5EA9;" d="M61.821,65.526h-2.272c-1.407,0-2.552-1.145-2.552-2.552c0-1.407,1.145-2.552,2.552-2.552h2.272
				c1.407,0,2.552,1.145,2.552,2.552C64.374,64.381,63.229,65.526,61.821,65.526z M59.549,60.972c-1.104,0-2.002,0.898-2.002,2.002
				s0.898,2.002,2.002,2.002h2.272c1.104,0,2.002-0.898,2.002-2.002s-0.898-2.002-2.002-2.002H59.549z"/>
		</g>
		<g>
			<path style="fill:#4C5EA9;" d="M44.776,56.666h-1.589c-1.755,0-3.184-1.428-3.184-3.184V38.238c0-1.536,1.095-2.852,2.602-3.13
				c0.187-0.036,0.383-0.054,0.582-0.054h1.589c1.755,0,3.184,1.428,3.184,3.184v15.243c0,0.091-0.005,0.182-0.013,0.271
				C47.812,55.385,46.42,56.666,44.776,56.666z M43.187,35.604c-0.164,0-0.326,0.015-0.48,0.045
				c-1.249,0.23-2.154,1.319-2.154,2.589v15.243c0,1.452,1.182,2.634,2.634,2.634h1.589c1.36,0,2.512-1.059,2.624-2.412
				c0.007-0.075,0.011-0.149,0.011-0.223V38.238c0-1.452-1.182-2.634-2.634-2.634H43.187z"/>
		</g>
		<g>
			<path style="fill:#4C5EA9;" d="M73.658,56.666h-1.59c-1.755,0-3.184-1.428-3.184-3.184V38.238c0-1.755,1.429-3.184,3.184-3.184
				h1.59c1.755,0,3.184,1.428,3.184,3.184v15.243C76.842,55.238,75.413,56.666,73.658,56.666z M72.068,35.604
				c-1.453,0-2.634,1.182-2.634,2.634v15.243c0,1.452,1.182,2.634,2.634,2.634h1.59c1.453,0,2.634-1.182,2.634-2.634V38.239
				c0-1.452-1.182-2.634-2.634-2.634H72.068z"/>
		</g>
		<g>
			<path style="fill:#4C5EA9;" d="M36.545,33.164h-15.17c-8.365,0-15.17-6.805-15.17-15.17s6.805-15.17,15.17-15.17
				c8.365,0,15.17,6.805,15.17,15.17l-0.003,0.116l0.003,0.119V33.164z M21.375,3.373c-8.062,0-14.62,6.559-14.62,14.62
				s6.559,14.62,14.62,14.62h14.62v-14.62C35.995,9.932,29.437,3.373,21.375,3.373z"/>
		</g>
		<g>
			<g>
				<path style="fill:#4CBFAC;" d="M17.57,59.961c-0.49,0.017-0.873,0.431-0.856,0.921c0.019,0.491,0.431,0.873,0.921,0.856
					c0.491-0.018,0.874-0.431,0.856-0.922C18.473,60.326,18.061,59.943,17.57,59.961z M17.468,57.218
					c-2.006,0.073-3.571,1.758-3.498,3.764c0.074,2.007,1.761,3.572,3.766,3.498c2.006-0.074,3.572-1.759,3.498-3.765
					C21.159,58.71,19.474,57.143,17.468,57.218z M17.672,62.713c-1.03,0.038-1.894-0.765-1.933-1.795
					c-0.038-1.029,0.766-1.895,1.795-1.933c1.029-0.038,1.894,0.766,1.933,1.795C19.504,61.81,18.7,62.674,17.672,62.713z
					 M23.832,62.71l-0.301,0.778c-0.035,0.117-0.174,0.186-0.307,0.152l-1.139-0.283c-0.409,0.73-0.994,1.351-1.697,1.806
					l0.352,1.085c0.043,0.132-0.015,0.275-0.131,0.317l-0.755,0.354c-0.106,0.06-0.253,0.014-0.328-0.103l-0.63-0.997
					c-0.354,0.092-0.724,0.149-1.105,0.163c-0.412,0.015-0.814-0.019-1.201-0.097l-0.564,1.061
					c-0.066,0.122-0.208,0.179-0.319,0.126l-0.78-0.297c-0.116-0.034-0.186-0.173-0.154-0.307l0.282-1.159
					c-0.705-0.404-1.309-0.97-1.754-1.652l-1.196,0.392c-0.132,0.044-0.275-0.015-0.318-0.129l-0.357-0.754
					c-0.061-0.106-0.016-0.254,0.1-0.327l1.1-0.701c-0.092-0.353-0.147-0.722-0.162-1.1c-0.016-0.445,0.025-0.878,0.115-1.293
					l-1.156-0.621c-0.122-0.066-0.178-0.21-0.125-0.32l0.3-0.778c0.036-0.116,0.173-0.186,0.308-0.152l1.293,0.322
					c0.406-0.67,0.96-1.241,1.62-1.666l-0.44-1.23c-0.047-0.13,0.006-0.274,0.12-0.321l0.745-0.377
					c0.105-0.064,0.253-0.021,0.331,0.093l0.773,1.147c0.004,0.007,0.009,0.014,0.012,0.024c0.337-0.084,0.688-0.135,1.048-0.148
					c0.393-0.015,0.778,0.017,1.149,0.086c0.001-0.002,0.003-0.006,0.004-0.009l0.687-1.2c0.069-0.119,0.214-0.172,0.324-0.116
					l0.77,0.321c0.116,0.037,0.181,0.178,0.144,0.311l-0.352,1.274c0.645,0.367,1.206,0.871,1.638,1.473l1.186-0.389
					c0.132-0.042,0.274,0.015,0.318,0.13l0.358,0.753c0.061,0.106,0.015,0.254-0.103,0.328l-1.025,0.653
					c0.13,0.422,0.208,0.868,0.226,1.329c0.014,0.397-0.018,0.785-0.089,1.16l1.061,0.571C23.828,62.456,23.884,62.6,23.832,62.71z"
					/>
			</g>
		</g>
		<g>
			<path style="fill:#FFFFFF;" d="M29.079,61.734c-0.369,0.013-0.658,0.325-0.645,0.694c0.014,0.37,0.325,0.658,0.694,0.645
				c0.37-0.013,0.659-0.325,0.645-0.695C29.759,62.009,29.449,61.72,29.079,61.734z M29.002,59.667
				c-1.512,0.055-2.692,1.325-2.637,2.837c0.056,1.513,1.327,2.692,2.839,2.637c1.512-0.056,2.692-1.326,2.636-2.838
				C31.785,60.791,30.514,59.61,29.002,59.667z M29.156,63.808c-0.777,0.028-1.428-0.577-1.457-1.353
				c-0.029-0.776,0.577-1.428,1.353-1.457c0.775-0.028,1.428,0.577,1.457,1.353C30.537,63.127,29.931,63.779,29.156,63.808z
				 M33.799,63.806l-0.227,0.587c-0.026,0.088-0.131,0.14-0.231,0.115l-0.858-0.213c-0.308,0.55-0.749,1.019-1.279,1.362
				l0.265,0.818c0.032,0.099-0.011,0.207-0.099,0.239l-0.569,0.267c-0.08,0.045-0.191,0.011-0.247-0.078l-0.475-0.752
				c-0.267,0.069-0.545,0.113-0.833,0.123c-0.31,0.011-0.613-0.015-0.905-0.073l-0.425,0.8c-0.049,0.092-0.157,0.135-0.241,0.095
				l-0.588-0.224c-0.088-0.026-0.14-0.13-0.116-0.231l0.213-0.874c-0.532-0.304-0.987-0.731-1.322-1.246l-0.902,0.296
				c-0.1,0.033-0.207-0.011-0.24-0.097l-0.269-0.568c-0.046-0.08-0.012-0.191,0.075-0.247l0.829-0.528
				c-0.069-0.266-0.111-0.544-0.122-0.829c-0.012-0.335,0.019-0.662,0.087-0.975l-0.872-0.468c-0.092-0.05-0.134-0.158-0.094-0.241
				l0.226-0.586c0.027-0.088,0.13-0.14,0.232-0.115l0.974,0.242c0.306-0.505,0.724-0.936,1.221-1.256l-0.331-0.927
				c-0.036-0.098,0.005-0.206,0.09-0.242l0.561-0.284c0.079-0.048,0.191-0.016,0.25,0.07l0.583,0.864
				c0.003,0.005,0.006,0.011,0.009,0.018c0.254-0.064,0.518-0.102,0.79-0.112c0.297-0.011,0.586,0.013,0.866,0.065
				c0.001-0.002,0.002-0.004,0.003-0.007l0.518-0.905c0.052-0.09,0.161-0.13,0.244-0.087l0.58,0.242
				c0.088,0.028,0.136,0.134,0.108,0.234l-0.265,0.96c0.486,0.276,0.909,0.657,1.235,1.11l0.894-0.293
				c0.099-0.032,0.206,0.011,0.24,0.098l0.27,0.568c0.046,0.08,0.011,0.191-0.077,0.247l-0.773,0.492
				c0.098,0.318,0.157,0.654,0.17,1.002c0.011,0.299-0.014,0.592-0.067,0.874l0.8,0.43C33.796,63.615,33.839,63.723,33.799,63.806z"
				/>
		</g>
		<g>
			<path style="fill:#4C5EA9;" d="M29.079,61.734c-0.369,0.013-0.658,0.325-0.645,0.694c0.014,0.37,0.325,0.658,0.694,0.645
				c0.37-0.013,0.659-0.325,0.645-0.695C29.759,62.009,29.449,61.72,29.079,61.734z M29.002,59.667
				c-1.512,0.055-2.692,1.325-2.637,2.837c0.056,1.513,1.327,2.692,2.839,2.637c1.512-0.056,2.692-1.326,2.636-2.838
				C31.785,60.791,30.514,59.61,29.002,59.667z M29.156,63.808c-0.777,0.028-1.428-0.577-1.457-1.353
				c-0.029-0.776,0.577-1.428,1.353-1.457c0.775-0.028,1.428,0.577,1.457,1.353C30.537,63.127,29.931,63.779,29.156,63.808z
				 M33.799,63.806l-0.227,0.587c-0.026,0.088-0.131,0.14-0.231,0.115l-0.858-0.213c-0.308,0.55-0.749,1.019-1.279,1.362
				l0.265,0.818c0.032,0.099-0.011,0.207-0.099,0.239l-0.569,0.267c-0.08,0.045-0.191,0.011-0.247-0.078l-0.475-0.752
				c-0.267,0.069-0.545,0.113-0.833,0.123c-0.31,0.011-0.613-0.015-0.905-0.073l-0.425,0.8c-0.049,0.092-0.157,0.135-0.241,0.095
				l-0.588-0.224c-0.088-0.026-0.14-0.13-0.116-0.231l0.213-0.874c-0.532-0.304-0.987-0.731-1.322-1.246l-0.902,0.296
				c-0.1,0.033-0.207-0.011-0.24-0.097l-0.269-0.568c-0.046-0.08-0.012-0.191,0.075-0.247l0.829-0.528
				c-0.069-0.266-0.111-0.544-0.122-0.829c-0.012-0.335,0.019-0.662,0.087-0.975l-0.872-0.468c-0.092-0.05-0.134-0.158-0.094-0.241
				l0.226-0.586c0.027-0.088,0.13-0.14,0.232-0.115l0.974,0.242c0.306-0.505,0.724-0.936,1.221-1.256l-0.331-0.927
				c-0.036-0.098,0.005-0.206,0.09-0.242l0.561-0.284c0.079-0.048,0.191-0.016,0.25,0.07l0.583,0.864
				c0.003,0.005,0.006,0.011,0.009,0.018c0.254-0.064,0.518-0.102,0.79-0.112c0.297-0.011,0.586,0.013,0.866,0.065
				c0.001-0.002,0.002-0.004,0.003-0.007l0.518-0.905c0.052-0.09,0.161-0.13,0.244-0.087l0.58,0.242
				c0.088,0.028,0.136,0.134,0.108,0.234l-0.265,0.96c0.486,0.276,0.909,0.657,1.235,1.11l0.894-0.293
				c0.099-0.032,0.206,0.011,0.24,0.098l0.27,0.568c0.046,0.08,0.011,0.191-0.077,0.247l-0.773,0.492
				c0.098,0.318,0.157,0.654,0.17,1.002c0.011,0.299-0.014,0.592-0.067,0.874l0.8,0.43C33.796,63.615,33.839,63.723,33.799,63.806z"
				/>
		</g>
	</g>
</g>
</svg>
